<svg width="17" height="17" viewBox="0 0 17 17" fill="none" xmlns="http://www.w3.org/2000/svg">
<path d="M0.625901 14.7929C0.235377 15.1834 0.235377 15.8166 0.625901 16.2071C1.01643 16.5976 1.64959 16.5976 2.04011 16.2071L0.625901 14.7929ZM16.4751 1.35786C16.4751 0.80558 16.0274 0.357865 15.4751 0.357865L6.47514 0.357865C5.92286 0.357865 5.47514 0.80558 5.47514 1.35786C5.47514 1.91015 5.92286 2.35786 6.47514 2.35786H14.4751V10.3579C14.4751 10.9101 14.9229 11.3579 15.4751 11.3579C16.0274 11.3579 16.4751 10.9101 16.4751 10.3579L16.4751 1.35786ZM2.04011 16.2071L16.1822 2.06497L14.768 0.650758L0.625901 14.7929L2.04011 16.2071Z" fill="#F16E7C"/>
</svg>
