<svg width="28" height="28" viewBox="0 0 28 28" fill="none" xmlns="http://www.w3.org/2000/svg">
<path d="M3.5 24.5H5.83333M5.83333 24.5H22.1667M5.83333 24.5V10.8827M24.5 24.5H22.1667M22.1667 24.5V10.8827M5.83333 10.8827C5.78971 10.8576 5.74691 10.8312 5.705 10.8033L5.075 10.3833C4.62963 10.0863 4.29996 9.64509 4.14128 9.13379C3.98261 8.6225 4.00457 8.07219 4.2035 7.57517L5.2465 4.9665C5.41974 4.53356 5.71872 4.16245 6.10489 3.90106C6.49105 3.63966 6.94668 3.49997 7.413 3.5H20.587C21.0533 3.49997 21.5089 3.63966 21.8951 3.90106C22.2813 4.16245 22.5803 4.53356 22.7535 4.9665L23.7965 7.57517C23.9954 8.07219 24.0174 8.6225 23.8587 9.13379C23.7 9.64509 23.3704 10.0863 22.925 10.3833L22.295 10.8033C22.2531 10.8312 22.2103 10.8576 22.1667 10.8827M5.83333 10.8827C6.21022 11.1003 6.64048 11.2083 7.07549 11.1943C7.51049 11.1802 7.93291 11.0448 8.295 10.8033L10.5 9.33333L12.705 10.8033C13.0884 11.0592 13.5391 11.1957 14 11.1957C14.4609 11.1957 14.9116 11.0592 15.295 10.8033L17.5 9.33333L19.705 10.8033C20.0671 11.0448 20.4895 11.1802 20.9245 11.1943C21.3595 11.2083 21.7898 11.1003 22.1667 10.8827" stroke="#040204" stroke-width="1.5" stroke-linecap="round" stroke-linejoin="round"/>
<path d="M16.3327 24.4997V18.6663C16.3327 18.0475 16.0868 17.454 15.6493 17.0164C15.2117 16.5788 14.6182 16.333 13.9993 16.333C13.3805 16.333 12.787 16.5788 12.3494 17.0164C11.9118 17.454 11.666 18.0475 11.666 18.6663V24.4997" stroke="#040204" stroke-width="1.5"/>
</svg>
