<svg width="32" height="32" viewBox="0 0 32 32" fill="none" xmlns="http://www.w3.org/2000/svg">
<path d="M14.9993 21.3337C16.4138 21.3337 17.7704 20.7718 18.7706 19.7716C19.7708 18.7714 20.3327 17.4148 20.3327 16.0003C20.3327 14.5858 19.7708 13.2293 18.7706 12.2291C17.7704 11.2289 16.4138 10.667 14.9993 10.667C13.5849 10.667 12.2283 11.2289 11.2281 12.2291C10.2279 13.2293 9.66602 14.5858 9.66602 16.0003C9.66602 17.4148 10.2279 18.7714 11.2281 19.7716C12.2283 20.7718 13.5849 21.3337 14.9993 21.3337Z" stroke="#F8F8F8" stroke-width="1.5" stroke-linecap="round" stroke-linejoin="round"/>
<path d="M3 21.3333V10.6667C3 8.89856 3.70238 7.20286 4.95262 5.95262C6.20286 4.70238 7.89856 4 9.66667 4H20.3333C22.1014 4 23.7971 4.70238 25.0474 5.95262C26.2976 7.20286 27 8.89856 27 10.6667V21.3333C27 23.1014 26.2976 24.7971 25.0474 26.0474C23.7971 27.2976 22.1014 28 20.3333 28H9.66667C7.89856 28 6.20286 27.2976 4.95262 26.0474C3.70238 24.7971 3 23.1014 3 21.3333Z" stroke="#F8F8F8" stroke-width="1.5"/>
<path d="M22.334 8.67879L22.3465 8.66504" stroke="#F8F8F8" stroke-width="1.5" stroke-linecap="round" stroke-linejoin="round"/>
</svg>
