<svg width="40" height="40" viewBox="0 0 40 40" fill="none" xmlns="http://www.w3.org/2000/svg">
<path d="M6.66602 13.3337V10.0003C6.66602 9.11627 7.0172 8.26842 7.64233 7.6433C8.26745 7.01818 9.11529 6.66699 9.99935 6.66699H13.3327M6.66602 26.667V30.0003C6.66602 30.8844 7.0172 31.7322 7.64233 32.3573C8.26745 32.9825 9.11529 33.3337 9.99935 33.3337H13.3327M26.666 6.66699H29.9993C30.8834 6.66699 31.7312 7.01818 32.3564 7.6433C32.9815 8.26842 33.3327 9.11627 33.3327 10.0003V13.3337M26.666 33.3337H29.9993C30.8834 33.3337 31.7312 32.9825 32.3564 32.3573C32.9815 31.7322 33.3327 30.8844 33.3327 30.0003V26.667" stroke="#F16E7C" stroke-width="4" stroke-linecap="round" stroke-linejoin="round"/>
</svg>
