<svg width="30" height="30" viewBox="0 0 30 30" fill="none" xmlns="http://www.w3.org/2000/svg">
<path d="M25 7.50024H20V6.25024C20 5.25568 19.6049 4.30186 18.9017 3.59859C18.1984 2.89533 17.2446 2.50024 16.25 2.50024H13.75C12.7554 2.50024 11.8016 2.89533 11.0983 3.59859C10.3951 4.30186 10 5.25568 10 6.25024V7.50024H5C4.66848 7.50024 4.35054 7.63194 4.11612 7.86636C3.8817 8.10078 3.75 8.41872 3.75 8.75024C3.75 9.08176 3.8817 9.39971 4.11612 9.63413C4.35054 9.86855 4.66848 10.0002 5 10.0002H6.25V23.7502C6.25 24.7448 6.64509 25.6986 7.34835 26.4019C8.05161 27.1052 9.00544 27.5002 10 27.5002H20C20.9946 27.5002 21.9484 27.1052 22.6517 26.4019C23.3549 25.6986 23.75 24.7448 23.75 23.7502V10.0002H25C25.3315 10.0002 25.6495 9.86855 25.8839 9.63413C26.1183 9.39971 26.25 9.08176 26.25 8.75024C26.25 8.41872 26.1183 8.10078 25.8839 7.86636C25.6495 7.63194 25.3315 7.50024 25 7.50024ZM12.5 6.25024C12.5 5.91872 12.6317 5.60078 12.8661 5.36636C13.1005 5.13194 13.4185 5.00024 13.75 5.00024H16.25C16.5815 5.00024 16.8995 5.13194 17.1339 5.36636C17.3683 5.60078 17.5 5.91872 17.5 6.25024V7.50024H12.5V6.25024ZM21.25 23.7502C21.25 24.0818 21.1183 24.3997 20.8839 24.6341C20.6495 24.8685 20.3315 25.0002 20 25.0002H10C9.66848 25.0002 9.35054 24.8685 9.11612 24.6341C8.8817 24.3997 8.75 24.0818 8.75 23.7502V10.0002H21.25V23.7502Z" fill="#9E9DA5"/>
</svg>
